<?xml version="1.0" encoding="UTF-8"?><svg id="Layer_1" xmlns="http://www.w3.org/2000/svg" viewBox="0 0 20 20"><defs><style>.cls-1{fill:#1c86c0;}</style></defs><path class="cls-1" d="m6.02,15.04c-1.19-1.23-3.23-1.2-4.39.06-.33.36-.55.79-.72,1.24v.29c.15.41.45.56.88.55,1.12-.02,2.25,0,3.37,0h.21c.09-.75.34-1.42.74-2.04-.04-.04-.06-.07-.09-.1Z"/><path class="cls-1" d="m2.26,6.53c-.12.48-.26.95-.38,1.43-.02.07,0,.15.01.22.08-.01.17,0,.23-.05.41-.26.82-.53,1.23-.8.11-.07.19-.07.3,0,.41.28.82.55,1.24.81.06.04.14.03.21.04,0-.07.03-.14.02-.2-.12-.47-.24-.93-.38-1.4-.05-.16,0-.26.12-.36.38-.29.75-.59,1.11-.9.05-.04.07-.13.1-.19-.06-.03-.12-.08-.19-.08-.49-.03-.98-.05-1.47-.07-.14,0-.22-.06-.27-.19-.16-.45-.33-.89-.51-1.33-.03-.07-.1-.13-.16-.19-.05.07-.13.13-.16.2-.17.44-.34.88-.5,1.32-.05.14-.13.2-.28.2-.39,0-.78.03-1.17.05-.16,0-.32.04-.48.06v.15c.43.35.87.69,1.3,1.04.05.04.08.16.06.23Z"/><path class="cls-1" d="m10.93,13.73c-1.68-.37-3.36.29-4.31,1.7-.51.76-.68,1.59-.68,2.5,0,.76.52,1.26,1.24,1.24.94-.03,1.88,0,2.82,0h0c1,0,2,0,3.01,0,.52,0,.98-.4,1.02-.91.03-.39.05-.79,0-1.17-.23-1.64-1.5-3-3.1-3.36Z"/><path class="cls-1" d="m10.01,9.15c-1.13,0-2.06.91-2.06,2.04,0,1.14.91,2.07,2.05,2.07,1.14,0,2.06-.91,2.06-2.04,0-1.14-.91-2.07-2.05-2.07Z"/><path class="cls-1" d="m19.04,16.2c-.49-1.44-1.93-2.29-3.43-2.02-.68.12-1.25.44-1.72.96.41.62.65,1.3.74,2.04h.16c1.19,0,2.37,0,3.56,0,.56,0,.87-.45.69-.97Z"/><path class="cls-1" d="m15.15,6.26c.11.09.14.18.1.31-.09.29-.16.59-.25.88-.06.21-.11.41-.17.64.02.03.03.1.06.1.06,0,.13,0,.18-.03.42-.27.83-.53,1.24-.81.13-.09.22-.08.34,0,.4.27.8.53,1.21.79.06.04.14.03.21.05,0-.07.04-.15.02-.22-.12-.47-.25-.94-.38-1.41-.04-.13-.01-.21.1-.3.39-.3.77-.62,1.16-.93.05-.04.06-.12.1-.18-.06-.03-.12-.08-.18-.08-.46-.03-.93-.06-1.39-.07-.2,0-.31-.07-.37-.26-.15-.44-.32-.87-.49-1.3-.03-.06-.1-.11-.14-.16-.05.05-.12.1-.15.16-.18.45-.36.91-.52,1.37-.05.14-.13.19-.27.19-.48.02-.96.04-1.45.07-.07,0-.14.05-.21.08.04.07.06.16.12.2.37.31.75.61,1.13.91Z"/><path class="cls-1" d="m7.41,5.16c.04.06.06.14.12.19.38.31.76.61,1.14.92.05.04.09.1.13.15-.02.07-.03.11-.04.15-.13.47-.26.94-.38,1.42-.02.07.01.14.02.22.07-.01.16,0,.21-.05.41-.26.82-.53,1.23-.8.11-.08.2-.08.31,0,.4.27.81.54,1.23.8.06.04.14.03.21.05,0-.07.04-.15.02-.22-.12-.48-.25-.96-.39-1.43-.04-.13,0-.2.09-.28.37-.29.75-.59,1.11-.9.06-.05.1-.14.15-.21-.08-.03-.15-.09-.23-.09-.46-.03-.91-.05-1.37-.07-.17,0-.27-.05-.33-.23-.15-.44-.33-.88-.5-1.32-.03-.07-.1-.12-.16-.17-.05.06-.11.11-.14.17-.17.44-.35.89-.51,1.34-.06.16-.15.21-.31.22-.48.01-.95.04-1.43.07-.07,0-.13.06-.2.09Z"/><path class="cls-1" d="m14.62,12.18c0,.85.7,1.54,1.54,1.54.85,0,1.54-.7,1.54-1.55,0-.85-.69-1.53-1.55-1.53-.85,0-1.53.69-1.53,1.54Z"/><path class="cls-1" d="m3.85,10.64c-.85,0-1.54.69-1.54,1.54s.7,1.54,1.54,1.54c.85,0,1.54-.69,1.54-1.54,0-.86-.68-1.54-1.54-1.54Z"/><path class="cls-1" d="m11.84,3.9c.09-.04.16-.05.2-.08.37-.32.73-.65,1.08-.98.11-.11.11-.26,0-.38-.09-.12-.27-.15-.39-.04-.37.32-.73.64-1.08.98-.06.06-.07.22-.04.31.03.08.15.13.22.19Z"/><path class="cls-1" d="m7.18,3.11c.24.22.48.45.74.66.08.06.23.09.33.06.08-.02.14-.14.21-.23-.06-.1-.08-.19-.14-.24-.34-.32-.68-.63-1.03-.93-.13-.11-.3-.1-.41.02-.11.12-.1.29.02.41.09.09.19.17.28.26Z"/><path class="cls-1" d="m9.71,2.16c0,.19.12.31.29.31.17,0,.29-.12.29-.31,0-.35,0-.69,0-1.04,0-.19-.12-.31-.29-.31s-.29.12-.29.3c0,.17,0,.34,0,.51s0,.35,0,.53Z"/></svg>