<?xml version="1.0" encoding="UTF-8"?><svg id="Layer_1" xmlns="http://www.w3.org/2000/svg" viewBox="0 0 20 20"><defs><style>.cls-1{fill:#fff;}</style></defs><path class="cls-1" d="m19.04,8.4c-.56-2.91-2.14-5.08-4.73-6.51-1.13-.62-2.35-.96-3.64-1.05-.05,0-.09-.02-.14-.03h-1.08c-.35.05-.71.08-1.06.15C5.49,1.52,3.32,3.1,1.89,5.69c-.62,1.12-.96,2.34-1.05,3.62,0,.05-.02.1-.03.16v1.08c.05.35.08.71.15,1.06.56,2.91,2.14,5.08,4.73,6.51,1.13.62,2.35.96,3.64,1.05.05,0,.09.02.14.03h1.08c.35-.05.7-.08,1.04-.14,2.91-.55,5.08-2.13,6.52-4.72.63-1.13.97-2.35,1.06-3.63,0-.05.02-.1.03-.16v-1.08c-.05-.35-.08-.71-.14-1.06Zm-7.12,6.6s-.04.06-.07.07c-.51.17-1.01.38-1.53.5-.48.11-.99.07-1.46-.13-.56-.24-.9-.75-.86-1.36.03-.41.09-.82.19-1.22.2-.79.44-1.57.64-2.37.07-.28.06-.59.06-.89,0-.23-.17-.36-.39-.41-.31-.06-.62-.04-.92.06-.1.03-.2.06-.33.1q.13-.64.7-.85c.59-.22,1.19-.42,1.83-.35.57.06,1.07.26,1.36.8.13.26.16.53.15.82-.03.78-.32,1.5-.51,2.25-.14.54-.29,1.09-.39,1.64-.13.68.19,1.01.87.93.26-.03.52-.11.8-.16-.04.18-.09.38-.14.56Zm-.84-8.06c-.61.08-1.12-.09-1.47-.61-.46-.69-.11-1.64.7-1.9.17-.06.35-.07.52-.11.7.04,1.28.52,1.36,1.14.1.71-.41,1.38-1.12,1.48Z"/></svg>