<?xml version="1.0" encoding="utf-8"?>
<!-- Generator: Adobe Illustrator 25.3.1, SVG Export Plug-In . SVG Version: 6.00 Build 0)  -->
<svg version="1.1" id="Layer_1" xmlns="http://www.w3.org/2000/svg" xmlns:xlink="http://www.w3.org/1999/xlink" x="0px" y="0px"
	 viewBox="0 0 1000 234.48" style="enable-background:new 0 0 1000 234.48;" xml:space="preserve">
<style type="text/css">
	.st0{fill:#465567;}
</style>
<g>
	<g>
		<path class="st0" d="M664.37,51.97l-15.02,45.31h-8.94l-11.19-33.53l-11.39,33.53h-9l-15.02-45.31h8.74l11.26,34.43l11.72-34.43
			h7.77l11.45,34.62l11.58-34.62H664.37z"/>
		<path class="st0" d="M665,80c0-10.35,7.77-17.67,18.39-17.67c10.74,0,18.45,7.32,18.45,17.67c0,10.36-7.7,17.73-18.45,17.73
			C672.77,97.73,665,90.36,665,80z M693.68,80c0-6.6-4.4-10.81-10.29-10.81c-5.83,0-10.23,4.21-10.23,10.81
			c0,6.6,4.4,10.81,10.23,10.81C689.27,90.81,693.68,86.6,693.68,80z"/>
		<path class="st0" d="M729.59,62.32v7.7c-0.71-0.13-1.29-0.19-1.88-0.19c-6.15,0-10.03,3.62-10.03,10.68v16.76h-8.1V62.72h7.7v5.04
			C719.62,64.14,723.84,62.32,729.59,62.32z"/>
		<path class="st0" d="M758.53,95.4c-1.95,1.55-4.85,2.33-7.77,2.33c-7.57,0-11.91-4.01-11.91-11.64V69.45h-5.7v-6.47h5.7v-7.89h8.1
			v7.89h9.25v6.47h-9.25v16.44c0,3.37,1.67,5.18,4.78,5.18c1.69,0,3.3-0.45,4.53-1.41L758.53,95.4z"/>
		<path class="st0" d="M799.22,77.47v19.81h-8.08V78.51c0-6.15-3.04-9.13-8.23-9.13c-5.76,0-9.64,3.49-9.64,10.42v17.47h-8.1V49.26
			h8.1v17.47c2.65-2.85,6.73-4.4,11.51-4.4C793.07,62.32,799.22,67.05,799.22,77.47z"/>
		<path class="st0" d="M824.53,80c0-10.35,7.77-17.67,18.39-17.67c10.74,0,18.45,7.32,18.45,17.67c0,10.36-7.7,17.73-18.45,17.73
			C832.3,97.73,824.53,90.36,824.53,80z M853.2,80c0-6.6-4.4-10.81-10.29-10.81c-5.83,0-10.23,4.21-10.23,10.81
			c0,6.6,4.4,10.81,10.23,10.81C848.8,90.81,853.2,86.6,853.2,80z"/>
		<path class="st0" d="M878.05,60.9v2.08h9.51v6.47h-9.26v27.83h-8.08V69.45h-5.7v-6.47h5.7v-2.21c0-7.24,4.33-11.96,12.36-11.96
			c2.79,0,5.51,0.58,7.32,1.88l-2.27,6.08c-1.23-0.84-2.79-1.42-4.47-1.42C879.79,55.33,878.05,57.22,878.05,60.9z"/>
		<path class="st0" d="M607.35,121.76h-15.02v-7.12h38.45v7.12h-15.02v38.18h-8.42V121.76z"/>
		<path class="st0" d="M629.92,142.66c0-10.35,7.77-17.67,18.39-17.67c10.74,0,18.45,7.32,18.45,17.67
			c0,10.36-7.7,17.73-18.45,17.73C637.7,160.39,629.92,153.02,629.92,142.66z M658.6,142.66c0-6.6-4.4-10.81-10.29-10.81
			c-5.83,0-10.23,4.21-10.23,10.81c0,6.6,4.4,10.81,10.23,10.81C654.2,153.47,658.6,149.26,658.6,142.66z"/>
		<path class="st0" d="M732.32,140.13v19.81h-8.1v-18.77c0-6.15-2.85-9.13-7.76-9.13c-5.31,0-9,3.49-9,10.35v17.54h-8.1v-18.77
			c0-6.15-2.85-9.13-7.76-9.13c-5.38,0-9,3.49-9,10.35v17.54h-8.1v-34.56h7.7v4.4c2.59-3.11,6.6-4.8,11.32-4.8
			c5.06,0,9.26,1.88,11.66,5.77c2.78-3.56,7.44-5.77,12.95-5.77C726.5,124.98,732.32,129.71,732.32,140.13z"/>
		<path class="st0" d="M740.13,142.66c0-10.35,7.77-17.67,18.39-17.67c10.74,0,18.45,7.32,18.45,17.67
			c0,10.36-7.7,17.73-18.45,17.73C747.91,160.39,740.13,153.02,740.13,142.66z M768.81,142.66c0-6.6-4.4-10.81-10.29-10.81
			c-5.83,0-10.23,4.21-10.23,10.81c0,6.6,4.4,10.81,10.23,10.81C764.41,153.47,768.81,149.26,768.81,142.66z"/>
		<path class="st0" d="M804.73,124.98v7.7c-0.71-0.13-1.29-0.19-1.88-0.19c-6.15,0-10.03,3.62-10.03,10.68v16.76h-8.1v-34.56h7.7
			v5.04C794.76,126.8,798.97,124.98,804.73,124.98z"/>
		<path class="st0" d="M831.58,124.98v7.7c-0.71-0.13-1.29-0.19-1.88-0.19c-6.15,0-10.03,3.62-10.03,10.68v16.76h-8.1v-34.56h7.7
			v5.04C821.61,126.8,825.82,124.98,831.58,124.98z"/>
		<path class="st0" d="M835.27,142.66c0-10.35,7.77-17.67,18.39-17.67c10.74,0,18.45,7.32,18.45,17.67
			c0,10.36-7.7,17.73-18.45,17.73C843.04,160.39,835.27,153.02,835.27,142.66z M863.95,142.66c0-6.6-4.4-10.81-10.29-10.81
			c-5.83,0-10.23,4.21-10.23,10.81c0,6.6,4.4,10.81,10.23,10.81C859.54,153.47,863.95,149.26,863.95,142.66z"/>
		<path class="st0" d="M932.81,125.38l-12.76,34.56h-7.76l-8.94-23.82l-9.06,23.82h-7.76l-12.69-34.56h7.63l9.13,25.51l9.52-25.51
			h6.79l9.33,25.63l9.38-25.63H932.81z"/>
		<path class="st0" d="M947.22,116.77c0,1.48-0.25,2.59-1.42,5.57l-3.36,9.19h-5.25l2.59-9.97c-1.8-0.71-3.04-2.39-3.04-4.78
			c0-3.17,2.27-5.31,5.25-5.31C945.03,111.46,947.22,113.66,947.22,116.77z"/>
		<path class="st0" d="M950.07,156.51l3.1-6.15c3.05,2.01,7.7,3.43,12.05,3.43c5.1,0,7.24-1.42,7.24-3.82
			c0-6.6-21.35-0.39-21.35-14.17c0-6.54,5.89-10.81,15.2-10.81c4.59,0,9.84,1.1,12.95,2.98l-3.11,6.15c-3.3-1.93-6.6-2.59-9.9-2.59
			c-4.93,0-7.25,1.61-7.25,3.88c0,6.99,21.37,0.78,21.37,14.3c0,6.48-5.96,10.68-15.67,10.68
			C958.94,160.39,953.17,158.71,950.07,156.51z"/>
		<path class="st0" d="M638.41,177.31v45.31h-6.92l-24.99-30.68v30.68h-8.34v-45.31h6.92l24.99,30.68v-30.68H638.41z"/>
		<path class="st0" d="M682.16,207.92h-27.12c0.97,5.04,5.18,8.29,11.19,8.29c3.88,0,6.93-1.22,9.39-3.75l4.33,4.99
			c-3.1,3.69-7.95,5.63-13.91,5.63c-11.58,0-19.1-7.44-19.1-17.73c0-10.29,7.57-17.67,17.86-17.67c10.1,0,17.48,7.06,17.48,17.86
			C682.29,206.17,682.22,207.15,682.16,207.92z M654.97,202.55h19.62c-0.65-4.99-4.47-8.42-9.78-8.42
			C659.57,194.14,655.75,197.5,654.97,202.55z"/>
		<path class="st0" d="M722.41,207.92h-27.12c0.97,5.04,5.18,8.29,11.19,8.29c3.88,0,6.93-1.22,9.39-3.75l4.33,4.99
			c-3.1,3.69-7.95,5.63-13.91,5.63c-11.58,0-19.1-7.44-19.1-17.73c0-10.29,7.57-17.67,17.86-17.67c10.1,0,17.48,7.06,17.48,17.86
			C722.54,206.17,722.47,207.15,722.41,207.92z M695.22,202.55h19.62c-0.65-4.99-4.47-8.42-9.78-8.42
			C699.82,194.14,696,197.5,695.22,202.55z"/>
		<path class="st0" d="M764.16,174.59v48.02h-7.76v-4.46c-2.72,3.3-6.73,4.91-11.45,4.91c-10.04,0-17.48-6.99-17.48-17.73
			s7.44-17.67,17.48-17.67c4.46,0,8.4,1.5,11.12,4.66v-17.73H764.16z M756.19,205.33c0-6.6-4.46-10.81-10.29-10.81
			c-5.82,0-10.29,4.21-10.29,10.81s4.47,10.81,10.29,10.81C751.73,216.14,756.19,211.93,756.19,205.33z"/>
	</g>
	<g>
		<path class="st0" d="M549.43,75.67c-12.39-13.27-30.37-20.35-48.95-20.35c-18.58,0.3-36.27,7.96-48.06,21.23
			c-12.68,12.97-18.87,28.6-18.87,46.88v57.79c0,11.2-9.14,20.64-20.94,20.64c-6.78,0.88-13.56-1.18-18.58-5.6
			c-4.42-3.83-6.78-9.14-6.78-15.04l0.3-96.71h43.93V58.86h-44.23V4.6H361.9v76.66c-14.15-14.74-33.61-23.59-54.85-25.65
			c-25.06-1.77-48.95,6.19-65.75,22.7c-14.15,12.68-23.29,28.6-26.83,46.59l-12.39,73.13c-0.59,5.6-6.19,5.9-7.08,5.9
			c-2.65,0.3-7.37-1.18-7.96-6.19c-6.37-37.72-12.73-75.43-19.1-113.15c-2.95-18.87-18.87-27.42-32.73-27.42h-0.3
			c-13.86,0-29.19,8.55-31.85,27.42c-6.29,37.72-12.58,75.43-18.86,113.15c-0.59,4.42-2.95,6.19-7.67,6.19
			c-4.42,0-6.49-1.77-7.37-6.19l-7.66-45.11L45.88,58.86H19.64l15.92,93.77l8.55,49.24c2.95,18.87,18.87,27.42,32.73,27.42h0.29
			c13.86,0,29.19-8.55,31.85-27.42c6.29-37.72,12.58-75.43,18.86-113.15c0.59-4.42,2.95-6.19,7.67-6.19c4.42,0,6.49,1.77,7.37,6.19
			c6.37,37.72,12.73,75.43,19.1,113.15c3.24,18.87,18.87,27.42,32.73,27.42c0,0,0,0,0.3,0c13.86,0,29.19-8.55,32.43-27.42
			c1.48-8.26,3.24-20.05,5.31-32.14c2.95-15.92,5.6-33.02,7.37-43.34c9.73-35.68,41.28-48.06,67.82-44.52
			c26.83,3.54,53.67,23.88,53.67,61.04c0.88,29.19-19.17,48.06-38.04,56.02c-19.16,7.96-46.88,8.85-67.52-12.68l-2.65-2.95
			l-17.99,17.99l2.65,2.95c15.63,16.51,37.45,25.65,61.04,25.65c2.36,0,4.72,0,7.08-0.3c23.59-1.77,45.11-12.38,59.56-29.49
			c6.49,15.04,21.53,25.95,38.04,27.13v0.3h13.27v-0.3c11.5-0.88,20.93-5.31,28.6-13.27c8.85-9.14,13.56-20.05,13.56-32.73v-62.81
			c0.88-9.73,4.72-17.69,12.38-25.06c13.86-14.74,32.73-14.45,46-8.85c13.27,5.31,27.13,18.58,26.54,38.92v104.09h25.36V123.43
			C569.48,105.15,562.7,88.93,549.43,75.67z"/>
	</g>
</g>
</svg>
