<svg xmlns="http://www.w3.org/2000/svg" width="18" height="18" viewBox="0 0 18 18">
  <g id="about" transform="translate(-1290.063 -1223)">
    <path id="XMLID_4_" d="M.818,7.092h.818v5.454H3.272V7.092H6v5.454H7.636V7.092h2.727v5.454H12V7.092h2.727v5.454h1.636V7.092h.818a.818.818,0,0,0,.454-1.5L9.453.139a.818.818,0,0,0-.908,0L.364,5.593a.818.818,0,0,0,.454,1.5Z" transform="translate(1290.064 1222.999)" fill="#fff"/>
    <path id="XMLID_5_" d="M17.182,260H.819a.818.818,0,0,0-.818.818V263a.818.818,0,0,0,.818.818H17.182A.818.818,0,0,0,18,263v-2.182A.818.818,0,0,0,17.182,260Z" transform="translate(1290.062 977.181)" fill="#fff"/>
  </g>
</svg>
