<svg id="client-1" xmlns="http://www.w3.org/2000/svg" width="23.121" height="18" viewBox="0 0 23.121 18">
  <path id="XMLID_1882_" d="M63.808,105.77a3.633,3.633,0,1,0,3.633,3.633A3.633,3.633,0,0,0,63.808,105.77Zm0,2.448a1.186,1.186,0,0,0-1.186,1.186.543.543,0,0,1-1.086,0,2.269,2.269,0,0,1,2.267-2.267.54.54,0,0,1,0,1.081Z" transform="translate(-57.31 -103.294)" fill="#007ebb"/>
  <path id="XMLID_1874_" d="M276.408,53.77a3.633,3.633,0,1,0,3.633,3.633A3.633,3.633,0,0,0,276.408,53.77Zm0,2.448a1.186,1.186,0,0,0-1.186,1.186.543.543,0,0,1-1.086,0,2.269,2.269,0,0,1,2.267-2.267.543.543,0,0,1,.543.543A.535.535,0,0,1,276.408,56.218Z" transform="translate(-259.786 -53.77)" fill="#007ebb"/>
  <path id="XMLID_1879_" d="M236.332,227.165v-.086a2.479,2.479,0,0,0-1.271-2.386c-1.386-.871-2.933-1.624-2.933-1.624l-1.233,3.9-.719-1.448c1.262-1.762-.09-1.852-.329-1.852h-.019c-.243,0-1.6.09-.329,1.852l-.719,1.448-1.233-3.9s-1.548.752-2.933,1.624a3.006,3.006,0,0,0-.738.624c.5.271,1.071.6,1.624.948a3.631,3.631,0,0,1,1.414,1.5,4.186,4.186,0,0,1,.352,1.7.7.7,0,0,1,0,.1v.062q.007.314,0,.643v.257h9.057v-2.743C236.337,227.57,236.337,227.36,236.332,227.165Zm-.01-.1Z" transform="translate(-213.214 -215.008)" fill="#007ebb"/>
  <g id="XMLID_1878_" transform="translate(0 10.538)">
    <g id="XMLID_1881_">
      <path id="Path_163451" data-name="Path 163451" d="M12.989,279.165v-.086a2.47,2.47,0,0,0-1.271-2.386c-1.386-.871-2.933-1.624-2.933-1.624l-1.233,3.9-.719-1.448c1.262-1.762-.09-1.852-.329-1.852H6.485c-.243,0-1.6.09-.329,1.852l-.719,1.448L4.2,275.07s-1.548.752-2.933,1.624A2.483,2.483,0,0,0,0,279.08v.086c0,.2,0,.4,0,.624v2.743H12.989v-2.743C12.994,279.57,12.994,279.36,12.989,279.165Z" transform="translate(0 -275.07)" fill="#007ebb"/>
    </g>
    <g id="XMLID_1880_" transform="translate(0.013 3.976)">
      <path id="Path_163452" data-name="Path 163452" d="M.275,358.584Z" transform="translate(-0.275 -358.57)" fill="#007ebb"/>
    </g>
    <g id="XMLID_1851_" transform="translate(12.98 3.977)">
      <path id="Path_163453" data-name="Path 163453" d="M272.575,358.613Z" transform="translate(-272.575 -358.595)" fill="#007ebb"/>
    </g>
  </g>
</svg>
