<svg width="44" height="45" viewBox="0 0 44 45" fill="none" xmlns="http://www.w3.org/2000/svg">
<path fill-rule="evenodd" clip-rule="evenodd" d="M9.625 27.9287C5.84004 27.9287 2.75 31.0187 2.75 34.8037C2.75 38.5887 5.84004 41.6787 9.625 41.6787H28.875C32.66 41.6787 35.75 38.5887 35.75 34.8037C35.75 31.0187 32.66 27.9287 28.875 27.9287H9.625ZM9.625 30.6787H28.875C31.184 30.6787 33 32.4947 33 34.8037C33 37.1127 31.184 38.9287 28.875 38.9287H9.625C7.31596 38.9287 5.5 37.1127 5.5 34.8037C5.5 32.4947 7.31596 30.6787 9.625 30.6787Z" fill="#1C86C0"/>
<path fill-rule="evenodd" clip-rule="evenodd" d="M31.625 15.5537C31.2603 15.5537 30.9106 15.6986 30.6527 15.9564C30.3949 16.2143 30.25 16.564 30.25 16.9287C30.25 17.2934 30.3949 17.6431 30.6527 17.901C30.9106 18.1588 31.2603 18.3037 31.625 18.3037C31.9897 18.3037 32.3394 18.1588 32.5973 17.901C32.8551 17.6431 33 17.2934 33 16.9287C33 16.564 32.8551 16.2143 32.5973 15.9564C32.3394 15.6986 31.9897 15.5537 31.625 15.5537Z" fill="#1C86C0"/>
<path fill-rule="evenodd" clip-rule="evenodd" d="M31.625 7.30371C31.2603 7.30371 30.9106 7.44855 30.6527 7.70642C30.3949 7.96428 30.25 8.31404 30.25 8.67871V12.8037C30.25 13.1684 30.3949 13.5181 30.6527 13.776C30.9106 14.0338 31.2603 14.1787 31.625 14.1787C31.9897 14.1787 32.3394 14.0338 32.5973 13.776C32.8551 13.5181 33 13.1684 33 12.8037V8.67871C33 8.31404 32.8551 7.96428 32.5973 7.70642C32.3394 7.44855 31.9897 7.30371 31.625 7.30371Z" fill="#1C86C0"/>
<path fill-rule="evenodd" clip-rule="evenodd" d="M31.625 3.17871C28.0083 3.17871 24.8472 5.19366 23.2031 8.15771C21.9653 7.60029 20.6196 7.30353 19.25 7.30371C13.9505 7.30371 9.625 11.6293 9.625 16.9287C9.625 22.2282 13.9505 26.5537 19.25 26.5537C19.2509 26.5537 19.2518 26.5537 19.2527 26.5537C22.7884 26.5441 25.9943 24.5958 27.6612 21.5693C28.8716 22.1202 30.2129 22.4287 31.6251 22.4287C36.9245 22.4287 41.2501 18.1032 41.2501 12.8037C41.2501 7.50428 36.9244 3.17871 31.625 3.17871ZM31.625 5.92871C35.4382 5.92871 38.5 8.99048 38.5 12.8037C38.5 16.617 35.4382 19.6787 31.625 19.6787C30.2717 19.6787 29.0146 19.2913 27.9539 18.6233C27.853 18.5308 27.739 18.4538 27.6155 18.395C25.8782 17.1506 24.75 15.1166 24.75 12.8037C24.75 12.0836 24.8614 11.3895 25.0642 10.7385C25.1344 10.6093 25.1833 10.4697 25.2092 10.325C26.1985 7.74674 28.6872 5.92871 31.625 5.92871ZM19.25 10.0537C20.2856 10.0536 21.3026 10.2881 22.2283 10.7332C22.0809 11.4005 22 12.0933 22 12.8037C22 15.7029 23.2977 18.3087 25.3381 20.0762C24.1763 22.3366 21.8471 23.7956 19.25 23.8037C15.4368 23.8037 12.375 20.742 12.375 16.9287C12.375 13.1155 15.4368 10.0537 19.25 10.0537Z" fill="#1C86C0"/>
</svg>
