<?xml version="1.0" encoding="UTF-8"?><svg id="Layer_1" xmlns="http://www.w3.org/2000/svg" viewBox="0 0 33 33"><defs><style>.cls-1{fill:#1c86c0;}</style></defs><g id="v65DRL.tif"><g><path class="cls-1" d="m31.8,21.12c-.29-1.12-.81-2.12-1.5-3.05-.1-.13-.16-.33-.16-.5-.01-1.97,0-3.94-.02-5.91,0-.29-.09-.61-.24-.86-1.72-2.91-3.47-5.8-5.2-8.7-.53-.9-1.26-1.48-2.31-1.63-.03,0-.06-.03-.08-.05H7.85c-.12.03-.25.07-.37.1-.78.2-1.42.63-1.83,1.32C3.82,4.87,2.01,7.91.19,10.94c-.07.11-.12.22-.18.34v16.59c.05.2.1.4.16.59.41,1.27,1.55,2.09,2.95,2.09,4.63,0,9.26,0,13.9,0,.29,0,.51.07.74.24,1.36,1,2.88,1.59,4.57,1.73.07,0,.14.04.22.05h1.11c.51-.09,1.03-.15,1.53-.27,3.73-.84,6.6-4.16,6.9-7.98,0-.08.04-.17.06-.25v-1.11c-.11-.62-.19-1.24-.35-1.85ZM16.09,2.48c.08,0,.16-.02.25-.02,1.85,0,3.7,0,5.55,0,.45,0,.77.19.99.57,1.45,2.42,2.9,4.83,4.35,7.25.03.05.06.11.1.2h-11.24V2.48ZM3.72,8.94c1.16-1.94,2.33-3.87,3.48-5.82.28-.47.65-.68,1.2-.68,1.76.02,3.53,0,5.29,0h.35v8.01H2.81c.32-.54.62-1.03.91-1.52Zm11.46,19.59c-3.97,0-7.95,0-11.92,0-.87,0-1.23-.36-1.23-1.22v-14.81h26.06v3.41c-4.4-2.3-8.42-1.94-11.88,1.81-1.36,1.47-2,3.29-2.12,5.29-.12,1.98.4,3.81,1.5,5.53h-.4Zm7.91,2.01c-3.88,0-7.03-3.17-7.02-7.05.01-3.86,3.18-7,7.05-6.99,3.87.01,7,3.17,7,7.04,0,3.87-3.16,7.01-7.03,7.01Z"/><path class="cls-1" d="m11.06,16.5c0,.58-.43.99-1.06.99-1.3,0-2.61,0-3.91,0-.6,0-1.03-.42-1.04-.98,0-.57.43-1,1.05-1.01.66,0,1.33,0,1.99,0s1.28,0,1.92,0c.63,0,1.05.42,1.05,1Z"/><path class="cls-1" d="m27.93,22.1c-.06.09-.14.17-.22.24-1.59,1.59-3.17,3.17-4.76,4.76-.59.59-1.12.59-1.72-.01-.94-.94-1.88-1.88-2.82-2.82-.31-.31-.4-.67-.27-1.08.12-.38.4-.59.78-.66.37-.07.68.08.94.34.65.66,1.31,1.31,1.96,1.97.08.08.13.2.2.32.17-.16.25-.24.34-.32,1.31-1.31,2.61-2.62,3.93-3.92.18-.18.44-.32.69-.38.41-.09.74.1.97.45.21.33.19.79-.04,1.11Z"/></g></g></svg>