<svg xmlns="http://www.w3.org/2000/svg" width="20.604" height="20.604" viewBox="0 0 20.604 20.604">
  <path id="email" d="M17.587,3.017a10.3,10.3,0,0,0-14.57,14.57,10.313,10.313,0,0,0,11.3,2.208l-.649-1.533A8.639,8.639,0,1,1,18.939,10.3c0,2-1.167,2.9-2.324,2.9s-2.324-.9-2.324-2.9a3.994,3.994,0,1,0-1,2.639,3.858,3.858,0,0,0,3.325,1.927C18.6,14.868,20.6,13.3,20.6,10.3A10.235,10.235,0,0,0,17.587,3.017ZM10.3,12.626A2.324,2.324,0,1,1,12.626,10.3,2.327,2.327,0,0,1,10.3,12.626Z" fill="#d3edfc"/>
</svg>
