<svg xmlns="http://www.w3.org/2000/svg" width="36.466" height="36.466" viewBox="0 0 36.466 36.466">
  <path id="Facebook" d="M219.477,196.466H202.012A2.013,2.013,0,0,1,200,194.454V162.012A2.013,2.013,0,0,1,202.012,160h32.441a2.012,2.012,0,0,1,2.012,2.012v32.441a2.012,2.012,0,0,1-2.012,2.012h-9.293V182.345H229.9l.71-5.5h-5.45v-3.514c0-1.594.443-2.679,2.727-2.679l2.914,0v-4.922a39.032,39.032,0,0,0-4.246-.217c-4.2,0-7.079,2.565-7.079,7.274v4.059h-4.752v5.5h4.752v14.122Z" transform="translate(-200 -160)" fill="#4460a0" fill-rule="evenodd"/>
</svg>
