<svg width="48" height="49" viewBox="0 0 48 49" fill="none" xmlns="http://www.w3.org/2000/svg">
<path fill-rule="evenodd" clip-rule="evenodd" d="M13.2001 21.4099C13.2001 21.4099 14.0161 21.2999 15.2001 20.9839C18.3221 20.1509 24.0001 17.8899 24.0001 12.4519C24.0001 11.6585 23.8438 10.8728 23.5402 10.1398C23.2365 9.4067 22.7915 8.74064 22.2304 8.17958C21.6694 7.61853 21.0033 7.17348 20.2703 6.86984C19.5372 6.5662 18.7515 6.40992 17.9581 6.40992H12.0421C11.2422 6.39963 10.4482 6.5483 9.70616 6.84729C8.96415 7.14629 8.2889 7.58967 7.71959 8.15169C7.15029 8.71372 6.69827 9.3832 6.38975 10.1213C6.08123 10.8594 5.92236 11.6514 5.92236 12.4514C5.92236 13.2514 6.08123 14.0434 6.38975 14.7815C6.69827 15.5196 7.15029 16.1891 7.71959 16.7512C8.2889 17.3132 8.96415 17.7566 9.70616 18.0556C10.4482 18.3546 11.2422 18.5032 12.0421 18.4929H13.2001V21.4099ZM15.2001 16.4929H12.0421C11.506 16.5014 10.9736 16.4031 10.4759 16.2037C9.97814 16.0044 9.52505 15.7081 9.14296 15.3319C8.76087 14.9558 8.45743 14.5074 8.25031 14.0129C8.04318 13.5184 7.93652 12.9876 7.93652 12.4514C7.93652 11.9153 8.04318 11.3845 8.25031 10.8899C8.45743 10.3954 8.76087 9.94703 9.14296 9.57091C9.52505 9.19478 9.97814 8.89843 10.4759 8.69912C10.9736 8.4998 11.506 8.40149 12.0421 8.40992H17.9581C18.4889 8.40992 19.0145 8.51447 19.5049 8.7176C19.9953 8.92073 20.4409 9.21846 20.8162 9.5938C21.1916 9.96913 21.4893 10.4147 21.6924 10.9051C21.8955 11.3955 22.0001 11.9211 22.0001 12.4519C22.0001 15.0349 20.1921 16.7549 17.7311 17.9419C16.9143 18.33 16.0679 18.6527 15.2001 18.9069V16.4929ZM14.5001 32.4099C16.7101 32.4099 18.5001 30.6199 18.5001 28.4099C18.5001 26.1999 16.7101 24.4099 14.5001 24.4099C12.2901 24.4099 10.5001 26.1999 10.5001 28.4099C10.5001 30.6199 12.2901 32.4099 14.5001 32.4099ZM16.5001 28.4099C16.5001 28.9404 16.2894 29.4491 15.9143 29.8241C15.5392 30.1992 15.0305 30.4099 14.5001 30.4099C13.9697 30.4099 13.461 30.1992 13.0859 29.8241C12.7108 29.4491 12.5001 28.9404 12.5001 28.4099C12.5001 27.8795 12.7108 27.3708 13.0859 26.9957C13.461 26.6206 13.9697 26.4099 14.5001 26.4099C15.0305 26.4099 15.5392 26.6206 15.9143 26.9957C16.2894 27.3708 16.5001 27.8795 16.5001 28.4099ZM6.00009 38.6769C6.00009 35.8389 11.6631 34.4099 14.5001 34.4099C17.3371 34.4099 23.0001 35.8399 23.0001 38.6769V42.4099H6.00009V38.6769ZM8.00009 40.4099V38.6769C8.00009 38.6669 8.00009 38.6469 8.02609 38.5969C8.05809 38.5349 8.13109 38.4259 8.28909 38.2799C8.61809 37.9749 9.16909 37.6419 9.93209 37.3349C11.4621 36.7199 13.3321 36.4099 14.5001 36.4099C15.6671 36.4099 17.5391 36.7199 19.0681 37.3349C19.8301 37.6419 20.3821 37.9749 20.7111 38.2799C20.8691 38.4259 20.9421 38.5349 20.9741 38.5959C21.0001 38.6459 21.0001 38.6679 21.0001 38.6759V40.4099H8.00009ZM37.5001 28.4099C37.5001 30.6199 35.7101 32.4099 33.5001 32.4099C31.2901 32.4099 29.5001 30.6199 29.5001 28.4099C29.5001 26.1999 31.2901 24.4099 33.5001 24.4099C35.7101 24.4099 37.5001 26.1999 37.5001 28.4099ZM33.5001 30.4099C34.0305 30.4099 34.5392 30.1992 34.9143 29.8241C35.2894 29.4491 35.5001 28.9404 35.5001 28.4099C35.5001 27.8795 35.2894 27.3708 34.9143 26.9957C34.5392 26.6206 34.0305 26.4099 33.5001 26.4099C32.9697 26.4099 32.4609 26.6206 32.0859 26.9957C31.7108 27.3708 31.5001 27.8795 31.5001 28.4099C31.5001 28.9404 31.7108 29.4491 32.0859 29.8241C32.4609 30.1992 32.9697 30.4099 33.5001 30.4099ZM25.0001 38.6769C25.0001 35.8389 30.6631 34.4099 33.5001 34.4099C36.3371 34.4099 42.0001 35.8399 42.0001 38.6769V42.4099H25.0001V38.6769ZM27.0001 40.4099V38.6769C27.0001 38.6669 27.0001 38.6469 27.0261 38.5969C27.0581 38.5349 27.1311 38.4259 27.2881 38.2799C27.6181 37.9749 28.1701 37.6419 28.9321 37.3349C30.4621 36.7199 32.3321 36.4099 33.5001 36.4099C34.6671 36.4099 36.5391 36.7199 38.0681 37.3349C38.8301 37.6419 39.3821 37.9749 39.7121 38.2799C39.8691 38.4259 39.9421 38.5349 39.9741 38.5959C40.0001 38.6459 40.0001 38.6679 40.0001 38.6759V40.4099H27.0001ZM33.6001 21.9159C34.7701 22.2839 35.6001 22.4099 35.6001 22.4099V19.4929H35.9581C36.758 19.5032 37.552 19.3546 38.294 19.0556C39.036 18.7566 39.7113 18.3132 40.2806 17.7512C40.8499 17.1891 41.3019 16.5196 41.6104 15.7815C41.919 15.0434 42.0778 14.2514 42.0778 13.4514C42.0778 12.6514 41.919 11.8594 41.6104 11.1213C41.3019 10.3832 40.8499 9.71372 40.2806 9.15169C39.7113 8.58966 39.036 8.14629 38.294 7.84729C37.552 7.5483 36.758 7.39963 35.9581 7.40992H32.0421C30.4397 7.40992 28.9028 8.04649 27.7698 9.17958C26.6367 10.3127 26.0001 11.8495 26.0001 13.4519C26.0001 18.7479 30.7871 21.0319 33.6001 21.9159ZM35.9581 17.4929H33.6001V19.8059C32.9651 19.5791 32.3481 19.305 31.7541 18.9859C29.6701 17.8549 28.0001 16.1579 28.0001 13.4509C28.0004 12.3791 28.4263 11.3513 29.1843 10.5934C29.9423 9.83564 30.9703 9.40992 32.0421 9.40992H35.9581C36.4942 9.40149 37.0266 9.4998 37.5243 9.69912C38.022 9.89843 38.4751 10.1948 38.8572 10.5709C39.2393 10.947 39.5428 11.3954 39.7499 11.8899C39.957 12.3845 40.0637 12.9153 40.0637 13.4514C40.0637 13.9876 39.957 14.5184 39.7499 15.0129C39.5428 15.5074 39.2393 15.9558 38.8572 16.3319C38.4751 16.7081 38.022 17.0044 37.5243 17.2037C37.0266 17.4031 36.4942 17.5014 35.9581 17.4929Z" fill="#1C86C0"/>
</svg>
