<svg width="48" height="49" viewBox="0 0 48 49" fill="none" xmlns="http://www.w3.org/2000/svg">
<g clip-path="url(#clip0_310_1254)">
<path d="M34.5 34.9099V39.4099H12.75C10.9598 39.4099 9.2429 38.6988 7.97703 37.4329C6.71116 36.167 6 34.4501 6 32.6599C6 30.8697 6.71116 29.1528 7.97703 27.8869C9.2429 26.6211 10.9598 25.9099 12.75 25.9099H13.5V22.9099H12.75C10.1641 22.9099 7.68419 23.9371 5.85571 25.7656C4.02723 27.5941 3 30.0741 3 32.6599C3 35.2458 4.02723 37.7257 5.85571 39.5542C7.68419 41.3827 10.1641 42.4099 12.75 42.4099H34.5V46.9099H46.5V34.9099H34.5ZM43.5 43.9099H37.5V37.9099H43.5V43.9099Z" fill="#1C86C0"/>
<path d="M31.5 33.4099H28.5V28.9099H19.5V33.4099H16.5V28.9099C16.5008 28.1145 16.8171 27.3519 17.3796 26.7895C17.942 26.227 18.7046 25.9107 19.5 25.9099H28.5C29.2954 25.9107 30.058 26.227 30.6204 26.7895C31.1829 27.3519 31.4992 28.1145 31.5 28.9099V33.4099ZM24 24.4099C23.11 24.4099 22.24 24.146 21.4999 23.6515C20.7599 23.1571 20.1831 22.4543 19.8425 21.632C19.5019 20.8097 19.4128 19.9049 19.5865 19.032C19.7601 18.1591 20.1887 17.3573 20.818 16.7279C21.4474 16.0986 22.2492 15.67 23.1221 15.4964C23.995 15.3227 24.8998 15.4119 25.7221 15.7525C26.5443 16.0931 27.2471 16.6698 27.7416 17.4098C28.2361 18.1499 28.5 19.0199 28.5 19.9099C28.4988 21.103 28.0243 22.2469 27.1807 23.0906C26.337 23.9342 25.1931 24.4087 24 24.4099ZM24 18.4099C23.7033 18.4099 23.4133 18.4979 23.1666 18.6627C22.92 18.8275 22.7277 19.0618 22.6142 19.3359C22.5006 19.61 22.4709 19.9116 22.5288 20.2026C22.5867 20.4935 22.7296 20.7608 22.9393 20.9706C23.1491 21.1804 23.4164 21.3232 23.7074 21.3811C23.9983 21.439 24.2999 21.4093 24.574 21.2957C24.8481 21.1822 25.0824 20.9899 25.2472 20.7433C25.412 20.4966 25.5 20.2066 25.5 19.9099C25.4996 19.5122 25.3414 19.1309 25.0602 18.8497C24.779 18.5685 24.3977 18.4103 24 18.4099Z" fill="#1C86C0"/>
<path d="M35.25 6.40991H13.5V1.90991H1.5V13.9099H13.5V9.40991H35.25C37.0402 9.40991 38.7571 10.1211 40.023 11.3869C41.2888 12.6528 42 14.3697 42 16.1599C42 17.9501 41.2888 19.667 40.023 20.9329C38.7571 22.1988 37.0402 22.9099 35.25 22.9099H34.5V25.9099H35.25C37.8359 25.9099 40.3158 24.8827 42.1443 23.0542C43.9728 21.2257 45 18.7458 45 16.1599C45 13.5741 43.9728 11.0941 42.1443 9.26562C40.3158 7.43714 37.8359 6.40991 35.25 6.40991ZM10.5 10.9099H4.5V4.90991H10.5V10.9099Z" fill="#1C86C0"/>
</g>
<defs>
<clipPath id="clip0_310_1254">
<rect width="48" height="48" fill="white" transform="translate(0 0.409912)"/>
</clipPath>
</defs>
</svg>
