<svg xmlns="http://www.w3.org/2000/svg" width="33.009" height="32.945" viewBox="0 0 33.009 32.945">
  <g id="icona4" transform="translate(-3.5 -3.5)">
    <g id="idea_2" transform="translate(4 4)">
      <path id="Combined_Shape" data-name="Combined Shape" d="M19.2,4.8V6.4a.8.8,0,1,0,1.6,0V4.8a.8.8,0,1,0-1.6,0Zm3.11,19.988H17.7a2.449,2.449,0,0,0-2.5,2.4v6.7a2.1,2.1,0,0,0,2.132,2.058h5.329A2.1,2.1,0,0,0,24.8,33.887l.006-4.649a10.405,10.405,0,1,0-12.688-2.445.8.8,0,1,0,1.213-1.044,8.8,8.8,0,1,1,11.477,1.636v-.192A2.449,2.449,0,0,0,22.315,24.789Zm.893,3.42V27.191a.852.852,0,0,0-.895-.8H17.7a.852.852,0,0,0-.895.8v6.7a.5.5,0,0,0,.531.458h5.329a.5.5,0,0,0,.533-.459l0-3.978a10.377,10.377,0,0,1-2.278.461.8.8,0,0,1-.141-1.594A8.762,8.762,0,0,0,23.208,28.209Zm10.4-9h1.6a.8.8,0,1,1,0,1.6h-1.6a.8.8,0,1,1,0-1.6ZM6.4,19.2H4.8a.8.8,0,1,0,0,1.6H6.4a.8.8,0,1,0,0-1.6ZM8.8,7.67,9.933,8.8A.8.8,0,0,1,8.8,9.933L7.67,8.8A.8.8,0,0,1,8.8,7.67ZM31.208,9.933,32.339,8.8A.8.8,0,0,0,31.207,7.67L30.076,8.8a.8.8,0,0,0,1.132,1.132Z" transform="translate(-4 -4)" stroke="#000" stroke-width="1" fill-rule="evenodd"/>
    </g>
  </g>
</svg>
