<svg xmlns="http://www.w3.org/2000/svg" width="29.52" height="28.9" viewBox="0 0 29.52 28.9">
  <g id="icona5" transform="translate(0 -5)">
    <g id="Group_73138" data-name="Group 73138" transform="translate(0 5)">
      <path id="Path_163469" data-name="Path 163469" d="M.36,15.1l14.013,8.724a.739.739,0,0,0,.781,0L29.167,15.1a.743.743,0,0,0,0-1.265L15.154,5.112a.75.75,0,0,0-.787,0L.353,13.836A.739.739,0,0,0,.36,15.1Zm14.4-8.482,12.606,7.85-12.606,7.85L2.158,14.468Z" transform="translate(0 -5)"/>
      <path id="Path_163470" data-name="Path 163470" d="M452.844,226.1a.741.741,0,1,0,.527.217A.751.751,0,0,0,452.844,226.1Z" transform="translate(-424.068 -212.391)"/>
      <path id="Path_163471" data-name="Path 163471" d="M414.787,249.7a.738.738,0,0,0-.236,1.023.756.756,0,0,0,.632.353.732.732,0,0,0,.391-.112.745.745,0,0,0-.787-1.265Z" transform="translate(-388.739 -234.419)"/>
      <path id="Path_163472" data-name="Path 163472" d="M301.787,320.019a.745.745,0,1,0,1.023.242A.738.738,0,0,0,301.787,320.019Z" transform="translate(-282.746 -300.383)"/>
      <path id="Path_163473" data-name="Path 163473" d="M264.129,343.5a.746.746,0,0,0,.4,1.376.732.732,0,0,0,.391-.112.745.745,0,0,0-.787-1.265Z" transform="translate(-247.425 -322.403)"/>
      <path id="Path_163474" data-name="Path 163474" d="M339.461,296.6a.744.744,0,0,0,.391,1.377.732.732,0,0,0,.391-.112.743.743,0,0,0,.236-1.023A.731.731,0,0,0,339.461,296.6Z" transform="translate(-318.082 -278.411)"/>
      <path id="Path_163475" data-name="Path 163475" d="M377.129,273.2a.743.743,0,0,0-.236,1.023.756.756,0,0,0,.632.353.732.732,0,0,0,.391-.112.745.745,0,0,0-.787-1.265Z" transform="translate(-353.418 -256.462)"/>
      <path id="Path_163476" data-name="Path 163476" d="M226.317,367.017a.748.748,0,1,0,.527-.217A.762.762,0,0,0,226.317,367.017Z" transform="translate(-212.081 -344.367)"/>
      <path id="Path_163477" data-name="Path 163477" d="M188.493,343.7a.743.743,0,0,0,.236,1.023.764.764,0,0,0,.391.112.742.742,0,1,0-.626-1.135Z" transform="translate(-176.7 -322.373)"/>
      <path id="Path_163478" data-name="Path 163478" d="M37.893,249.861a.743.743,0,0,0,.236,1.023.764.764,0,0,0,.391.112.744.744,0,1,0-.626-1.135Z" transform="translate(-35.438 -234.348)"/>
      <path id="Path_163479" data-name="Path 163479" d="M150.893,320.261a.743.743,0,0,0,.236,1.023.764.764,0,0,0,.391.112.744.744,0,1,0-.626-1.135Z" transform="translate(-141.431 -300.383)"/>
      <path id="Path_163480" data-name="Path 163480" d="M113.193,296.8a.743.743,0,0,0,.236,1.023.764.764,0,0,0,.391.112.742.742,0,1,0-.626-1.135Z" transform="translate(-106.069 -278.381)"/>
      <path id="Path_163481" data-name="Path 163481" d="M75.493,273.4a.743.743,0,0,0,.236,1.023.764.764,0,0,0,.391.112.746.746,0,0,0,.4-1.376A.75.75,0,0,0,75.493,273.4Z" transform="translate(-70.706 -256.432)"/>
      <path id="Path_163482" data-name="Path 163482" d="M.844,227.588a.741.741,0,1,0-.527-.217A.736.736,0,0,0,.844,227.588Z" transform="translate(-0.094 -212.391)"/>
      <path id="Path_163483" data-name="Path 163483" d="M28.461,306.593l-13.622,8.482L1.216,306.593a.742.742,0,0,0-.787,1.259l14.013,8.724a.739.739,0,0,0,.781,0l14.013-8.724a.743.743,0,0,0,.236-1.023A.726.726,0,0,0,28.461,306.593Z" transform="translate(-0.075 -287.787)"/>
    </g>
  </g>
</svg>
