<svg xmlns="http://www.w3.org/2000/svg" width="35.168" height="35.585" viewBox="0 0 35.168 35.585">
  <path id="event-hub-svgrepo-com" d="M5.56,0A5.306,5.306,0,0,0,.243,5.56v6.776H35.168L26.272,4.8V8.549H2.78V5.56A3.27,3.27,0,0,1,5.7,2.433H29.712A3.244,3.244,0,0,1,32.6,5.56V6.881l2.433,2.467V5.56A5.306,5.306,0,0,0,29.712,0ZM0,14.8l8.9,7.332v-4.8H32.388v4c0,1.446-1.251,3.475-2.919,3.475H5.56c-1.446,0-2.884-1.918-2.884-3.475V20.016L.243,17.584v3.753c0,3.114,2.2,5.908,5.317,5.908h5.352L22.8,35.585l-.869-8.444h7.784c3.114,0,5.317-2.905,5.317-5.908V14.8H0Z" fill="#b4b4b4"/>
</svg>
