<svg id="Group_73029" data-name="Group 73029" xmlns="http://www.w3.org/2000/svg" width="35.11" height="33.551" viewBox="0 0 35.11 33.551">
  <path id="Path_163420" data-name="Path 163420" d="M18.8,30.556c2.1,0,3.817-2.579,3.817-5.749s-1.712-5.749-3.817-5.749-3.817,2.579-3.817,5.749S16.7,30.556,18.8,30.556Z" transform="translate(-7.067 -19.058)" fill="#fff"/>
  <path id="Path_163421" data-name="Path 163421" d="M65.591,30.557c2.1,0,3.817-2.579,3.817-5.75s-1.712-5.749-3.817-5.749-3.816,2.579-3.816,5.749S63.487,30.557,65.591,30.557Z" transform="translate(-42.22 -19.058)" fill="#fff"/>
  <path id="Path_163422" data-name="Path 163422" d="M34.9,55.7c-.218-.493-.552-.627-.832-.326A22.568,22.568,0,0,1,17.554,62.8,22.572,22.572,0,0,1,1.041,55.37c-.28-.3-.615-.167-.832.326a3.266,3.266,0,0,0-.134,1.866c2.041,9.247,9.229,15.7,17.479,15.7S33,66.806,35.035,57.56A3.273,3.273,0,0,0,34.9,55.7Z" transform="translate(0 -39.715)" fill="#fff"/>
</svg>
