<svg id="Group_73033" data-name="Group 73033" xmlns="http://www.w3.org/2000/svg" width="34.365" height="36.173" viewBox="0 0 34.365 36.173">
  <rect id="Rectangle_17271" data-name="Rectangle 17271" width="2" height="10" transform="translate(5.682 26.087)" fill="#b4b4b4"/>
  <path id="Path_163423" data-name="Path 163423" d="M12.706,7.235H33.2V17.484H34.41V1.809A1.776,1.776,0,0,0,32.6,0H13.309A1.776,1.776,0,0,0,11.5,1.809V17.484h1.206Zm.6-6.029H32.6a.57.57,0,0,1,.6.6v4.22h-20.5V1.809A.57.57,0,0,1,13.309,1.206Z" transform="translate(-5.471)" fill="#b4b4b4"/>
  <rect id="Rectangle_17272" data-name="Rectangle 17272" width="1" height="10" transform="translate(27.682 26.087)" fill="#b4b4b4"/>
  <rect id="Rectangle_17273" data-name="Rectangle 17273" width="6" height="1" transform="translate(14.682 3.087)" fill="#b4b4b4"/>
  <path id="Path_163424" data-name="Path 163424" d="M35.262,32H7.529a.646.646,0,0,0-.362.121L1.922,33.869a.56.56,0,0,0,0,1.085L7.167,36.7c.06.06.181.06.241.121H35.262a.57.57,0,0,0,.6-.6V32.6A.57.57,0,0,0,35.262,32ZM6.926,33.447v1.929l-2.894-.965Zm1.206,1.568h21.1V33.809H8.132v-.6h22.91v2.412H8.132Zm26.527.6H32.247V33.206h2.412Z" transform="translate(-1.5 -12.708)" fill="#b4b4b4"/>
  <rect id="Rectangle_17274" data-name="Rectangle 17274" width="2" transform="translate(16.682 9.087)" fill="#b4b4b4"/>
  <rect id="Rectangle_17275" data-name="Rectangle 17275" width="2" height="1" transform="translate(16.682 11.087)" fill="#b4b4b4"/>
  <rect id="Rectangle_17276" data-name="Rectangle 17276" width="2" height="2" transform="translate(16.682 13.087)" fill="#b4b4b4"/>
  <rect id="Rectangle_17277" data-name="Rectangle 17277" width="2" height="2" transform="translate(16.682 15.087)" fill="#b4b4b4"/>
  <rect id="Rectangle_17278" data-name="Rectangle 17278" height="1" transform="translate(13.682 30.087)" fill="#b4b4b4"/>
  <rect id="Rectangle_17279" data-name="Rectangle 17279" width="1" height="1" transform="translate(10.682 30.087)" fill="#b4b4b4"/>
  <rect id="Rectangle_17280" data-name="Rectangle 17280" width="2" height="1" transform="translate(7.682 30.087)" fill="#b4b4b4"/>
  <rect id="Rectangle_17281" data-name="Rectangle 17281" width="1" height="1" transform="translate(15.682 30.087)" fill="#b4b4b4"/>
  <rect id="Rectangle_17282" data-name="Rectangle 17282" width="1" height="1" transform="translate(18.682 30.087)" fill="#b4b4b4"/>
  <rect id="Rectangle_17283" data-name="Rectangle 17283" width="1" height="1" transform="translate(20.682 30.087)" fill="#b4b4b4"/>
  <rect id="Rectangle_17284" data-name="Rectangle 17284" width="2" height="1" transform="translate(22.682 30.087)" fill="#b4b4b4"/>
  <rect id="Rectangle_17285" data-name="Rectangle 17285" width="1" height="1" transform="translate(25.682 30.087)" fill="#b4b4b4"/>
  <path id="Path_163425" data-name="Path 163425" d="M22.132,15.206V14H16.1a.57.57,0,0,0-.6.6V22.44a.57.57,0,0,0,.6.6h6.029V21.838H16.706V15.206Z" transform="translate(-7.06 -5.56)" fill="#b4b4b4"/>
  <path id="Path_163426" data-name="Path 163426" d="M34.5,21.838v1.206h6.029a.57.57,0,0,0,.6-.6V14.6a.57.57,0,0,0-.6-.6H34.5v1.206h5.426v6.632Z" transform="translate(-14.605 -5.56)" fill="#b4b4b4"/>
  <path id="Path_163427" data-name="Path 163427" d="M32.381,56.412H16.706V54H15.5v3.014a.57.57,0,0,0,.6.6H32.984a.57.57,0,0,0,.6-.6V54H32.381Z" transform="translate(-7.06 -21.444)" fill="#b4b4b4"/>
  <rect id="Rectangle_17286" data-name="Rectangle 17286" width="19" height="1" transform="translate(7.682 27.087)" fill="#b4b4b4"/>
</svg>
