<svg xmlns="http://www.w3.org/2000/svg" width="31.852" height="33.447" viewBox="0 0 31.852 33.447">
  <path id="Path_163417" data-name="Path 163417" d="M42.852,2.8C41.73,1.681,39.968,1.34,37.707,1.79l.381-.541a.793.793,0,0,0-1.3-.913l-1.7,2.422A.793.793,0,0,0,35.4,3.934l2.687,1.245a.793.793,0,1,0,.667-1.439l-.817-.378C39.675,3,41,3.192,41.73,3.924c1.156,1.156.958,3.717-.542,7.026q-.294.648-.644,1.313a13.483,13.483,0,0,0-25.506,8.484c-3.095,5.254-3.692,9.434-1.629,11.5a4.545,4.545,0,0,0,3.339,1.2,13.712,13.712,0,0,0,5.464-1.42,28.789,28.789,0,0,0,2.7-1.41A13.485,13.485,0,0,0,41.223,14.3a28.806,28.806,0,0,0,1.41-2.7C44.447,7.6,44.525,4.476,42.852,2.8ZM21.558,30.581c-3.31,1.5-5.871,1.7-7.026.542-.888-.888-.817-2.449-.6-3.6a17.494,17.494,0,0,1,1.787-4.736,13.563,13.563,0,0,0,7.153,7.152Q22.206,30.287,21.558,30.581Zm3.118-1.674A11.9,11.9,0,1,1,39.515,14.068,46.061,46.061,0,0,1,32.9,22.29,46.059,46.059,0,0,1,24.675,28.908Zm3.455.512a11.982,11.982,0,0,1-1.232-.063,49.522,49.522,0,0,0,7.121-5.944,49.518,49.518,0,0,0,5.944-7.121A11.9,11.9,0,0,1,28.131,29.42Z" transform="translate(-12.2 0.001)" fill="#b4b4b4"/>
</svg>
