<svg xmlns="http://www.w3.org/2000/svg" width="34.491" height="36.225" viewBox="0 0 34.491 36.225">
  <g id="icona3" transform="translate(-4.436 -3.043)">
    <path id="Path_163467" data-name="Path 163467" d="M26.947,10.26a8.188,8.188,0,0,0-.7,16.346c.235.019.464.031.7.031.21,0,.427-.012.637-.031h.062V26.6a8.185,8.185,0,0,0-.7-16.339Zm6.067,11.577a.006.006,0,0,0-.006.006,6.921,6.921,0,0,1-5.473,3.525l-.006.006h-.006a5.628,5.628,0,0,1-1.163-.006,6.949,6.949,0,1,1,6.654-3.531Z" transform="translate(-5.266 -2.562)" fill="#d5d5d5" stroke="#aaa" stroke-width="2"/>
    <path id="Path_163468" data-name="Path 163468" d="M38.305,33.963,35.98,30.358q-2.5-3.85-4.985-7.712c.13-.049.278-.105.427-.155a2.584,2.584,0,0,0,1.651-1.113,2.584,2.584,0,0,0-.155-1.973A2.511,2.511,0,0,1,32.69,18.4a2.449,2.449,0,0,1,.625-.773,2.618,2.618,0,0,0,1.014-1.738,2.591,2.591,0,0,0-1.014-1.732,2.53,2.53,0,0,1-.625-.779,2.511,2.511,0,0,1,.229-1.008,2.571,2.571,0,0,0,.155-1.967,2.6,2.6,0,0,0-1.651-1.113,2.609,2.609,0,0,1-.921-.439,2.7,2.7,0,0,1-.223-1A2.592,2.592,0,0,0,29.567,6a2.6,2.6,0,0,0-1.96-.278,2.524,2.524,0,0,1-1.02,0,2.505,2.505,0,0,1-.625-.785A2.6,2.6,0,0,0,24.5,3.554a2.555,2.555,0,0,0-1.868.594,2.562,2.562,0,0,1-.946.451,2.562,2.562,0,0,1-.946-.451,2.549,2.549,0,0,0-1.862-.594A2.6,2.6,0,0,0,17.4,4.933a2.6,2.6,0,0,1-.618.785,2.558,2.558,0,0,1-1.027,0A2.581,2.581,0,0,0,13.8,6a2.575,2.575,0,0,0-.717,1.862,2.45,2.45,0,0,1-.229.99,2.439,2.439,0,0,1-.909.433,2.614,2.614,0,0,0-1.657,1.113,2.584,2.584,0,0,0,.155,1.973,2.511,2.511,0,0,1,.229,1.008,2.53,2.53,0,0,1-.625.779,2.591,2.591,0,0,0-1.014,1.732,2.619,2.619,0,0,0,1.014,1.738,2.449,2.449,0,0,1,.625.773,2.511,2.511,0,0,1-.229,1.008,2.571,2.571,0,0,0-.155,1.967,2.562,2.562,0,0,0,1.651,1.113c.142.056.291.105.427.161q-2.5,3.859-4.985,7.712L5.058,33.963a.607.607,0,0,0,.006.68.613.613,0,0,0,.625.26l4.224-.785L10.939,38.3a.618.618,0,0,0,.5.458.54.54,0,0,0,.1.012.609.609,0,0,0,.519-.284l6.667-10.322c.049.012.093.043.142.056a1.361,1.361,0,0,0,.309.037,3.1,3.1,0,0,0,1.558-.631,2.562,2.562,0,0,1,.946-.451,2.562,2.562,0,0,1,.946.451,2.536,2.536,0,0,0,1.874.594c.049-.012.093-.043.136-.056L31.3,38.484a.609.609,0,0,0,.519.284.541.541,0,0,0,.1-.012.618.618,0,0,0,.5-.458l1.027-4.181,4.224.785a.618.618,0,0,0,.625-.26.607.607,0,0,0,.006-.68ZM11.8,36.6l-.823-3.346a.618.618,0,0,0-.711-.464l-3.389.631,1.546-2.393q2.319-3.6,4.651-7.2a.485.485,0,0,1,.012.087,2.592,2.592,0,0,0,.711,1.855,2.6,2.6,0,0,0,1.96.278,2.524,2.524,0,0,1,1.02,0,2.434,2.434,0,0,1,.625.785c.118.179.235.359.359.532Zm12.6-9.716a.433.433,0,0,1-.186.124c-.173.037-.631-.241-.928-.433a3.136,3.136,0,0,0-1.608-.643,3.136,3.136,0,0,0-1.608.643c-.3.192-.755.476-.921.439a.512.512,0,0,1-.2-.136,4.013,4.013,0,0,1-.5-.7,3.108,3.108,0,0,0-1.132-1.243,2.008,2.008,0,0,0-.9-.179,7.036,7.036,0,0,0-.8.062c-.383.043-.9.105-1.051-.012s-.21-.643-.254-1.027a3.108,3.108,0,0,0-.489-1.633,1.051,1.051,0,0,0-.167-.167.773.773,0,0,0-.074-.056l-.006-.006h-.006a3.9,3.9,0,0,0-1.225-.6c-.365-.13-.86-.3-.946-.489s.087-.662.21-1.02a3.05,3.05,0,0,0,.266-1.688,3,3,0,0,0-.959-1.379c-.272-.272-.649-.649-.649-.86s.377-.588.649-.86a3,3,0,0,0,.959-1.379,3.05,3.05,0,0,0-.266-1.688c-.124-.359-.3-.847-.21-1.027s.588-.353.952-.482a3.008,3.008,0,0,0,1.466-.829,3.037,3.037,0,0,0,.495-1.627c.043-.383.1-.9.254-1.027s.668-.062,1.051-.019a3.1,3.1,0,0,0,1.7-.118,3.065,3.065,0,0,0,1.132-1.243c.2-.334.489-.785.693-.829.173-.043.631.247.928.433a3.136,3.136,0,0,0,1.608.643,3.136,3.136,0,0,0,1.608-.643c.3-.186.748-.47.928-.433.2.043.489.495.693.829a3.065,3.065,0,0,0,1.132,1.243,3.1,3.1,0,0,0,1.7.118c.383-.043.9-.105,1.051.012s.21.643.254,1.027a3.108,3.108,0,0,0,.489,1.633,3.107,3.107,0,0,0,1.478.835c.365.124.86.3.946.482s-.087.662-.21,1.02a3.05,3.05,0,0,0-.266,1.688,3,3,0,0,0,.959,1.379c.272.272.649.649.649.86s-.377.588-.649.86a3,3,0,0,0-.959,1.379,3.05,3.05,0,0,0,.266,1.688c.124.359.3.847.21,1.027s-.588.359-.946.482a3.756,3.756,0,0,0-1.28.631,1.922,1.922,0,0,0-.192.2,3.037,3.037,0,0,0-.495,1.627c-.043.383-.1.9-.254,1.027s-.668.062-1.051.019a3.04,3.04,0,0,0-1.7.118,3.108,3.108,0,0,0-1.132,1.243A4,4,0,0,1,24.4,26.888Zm8.7,5.906a.618.618,0,0,0-.711.464L31.564,36.6,25.6,27.371c.124-.173.241-.353.359-.532a2.517,2.517,0,0,1,.618-.785,2.558,2.558,0,0,1,1.027,0,2.581,2.581,0,0,0,1.954-.278,2.571,2.571,0,0,0,.717-1.855.417.417,0,0,1,.012-.087q2.328,3.6,4.651,7.2l1.546,2.393Z" stroke="#000" stroke-width="1"/>
  </g>
</svg>
