<svg xmlns="http://www.w3.org/2000/svg" width="36.52" height="29.549" viewBox="0 0 36.52 29.549">
  <g id="icona2" transform="translate(-0.996 -2.994)">
    <path id="Path_163461" data-name="Path 163461" d="M16.641,13.43a1.738,1.738,0,0,1-1.234-.5L9.691,7.192,3.974,12.926a1.745,1.745,0,1,1-2.467-2.467l6.95-6.95a1.738,1.738,0,0,1,2.467,0l6.95,6.95a1.738,1.738,0,0,1-1.234,2.971Z" transform="translate(0 0)" fill="#231f20"/>
    <path id="Path_163462" data-name="Path 163462" d="M6.738,32.539A1.738,1.738,0,0,1,5,30.8V4.738a1.738,1.738,0,0,1,3.475,0V30.8A1.738,1.738,0,0,1,6.738,32.539Z" transform="translate(3.345 0.004)" fill="#231f20"/>
    <path id="Path_163463" data-name="Path 163463" d="M24.426,9.475H15.738a1.738,1.738,0,0,1,0-3.475h8.688a1.738,1.738,0,1,1,0,3.475Z" transform="translate(11.353 2.217)" fill="#231f20"/>
    <path id="Path_163464" data-name="Path 163464" d="M25.9,14.475H13.738a1.738,1.738,0,0,1,0-3.475H25.9a1.738,1.738,0,1,1,0,3.475Z" transform="translate(9.878 5.905)" fill="#231f20"/>
    <path id="Path_163465" data-name="Path 163465" d="M28.113,19.475H10.738a1.738,1.738,0,1,1,0-3.475H28.113a1.738,1.738,0,1,1,0,3.475Z" transform="translate(7.665 9.593)" fill="#231f20"/>
  </g>
</svg>
