<svg width="48" height="49" viewBox="0 0 48 49" fill="none" xmlns="http://www.w3.org/2000/svg">
<path d="M28.7 19.2099L26.9 22.1099L28.3 23.5099L31.2 21.7099L32.2 22.1099L33 25.4099H35L35.8 22.1099L36.8 21.7099L39.7 23.5099L41.1 22.1099L39.3 19.2099C39.4757 18.8951 39.6101 18.559 39.7 18.2099L43 17.4099V15.4099L39.7 14.6099C39.6101 14.2608 39.4757 13.9247 39.3 13.6099L41.1 10.7099L39.7 9.30991L36.8 11.1099L35.8 10.7099L35 7.40991H33L32.2 10.7099L31.2 11.1099L28.3 9.30991L26.9 10.7099L28.7 13.6099C28.5243 13.9247 28.3899 14.2608 28.3 14.6099L25 15.4099V17.4099L28.3 18.2099C28.3899 18.559 28.5243 18.8951 28.7 19.2099ZM34 14.4099C34.3956 14.4099 34.7822 14.5272 35.1111 14.747C35.44 14.9667 35.6964 15.2791 35.8478 15.6445C35.9991 16.01 36.0387 16.4121 35.9616 16.8001C35.8844 17.1881 35.6939 17.5444 35.4142 17.8241C35.1345 18.1038 34.7781 18.2943 34.3902 18.3715C34.0022 18.4487 33.6001 18.409 33.2346 18.2577C32.8692 18.1063 32.5568 17.85 32.3371 17.5211C32.1173 17.1922 32 16.8055 32 16.4099C32 15.8795 32.2107 15.3708 32.5858 14.9957C32.9609 14.6206 33.4696 14.4099 34 14.4099Z" fill="#1C86C0"/>
<path d="M42.2 29.1099C41.6444 28.6619 41.0026 28.333 40.3144 28.1437C39.6263 27.9545 38.9065 27.9089 38.2 28.0099L28.3 29.8099C28.3052 29.1933 28.1836 28.5822 27.9428 28.0145C27.7019 27.4468 27.347 26.9347 26.9 26.5099L19.8 19.4099H5C4.46957 19.4099 3.96086 19.6206 3.58579 19.9957C3.21071 20.3708 3 20.8795 3 21.4099V30.4099C3 30.9403 3.21071 31.4491 3.58579 31.8241C3.96086 32.1992 4.46957 32.4099 5 32.4099H8.3L19.5 41.5099L39.9 37.8099C40.8217 37.63 41.674 37.1941 42.3595 36.5522C43.0449 35.9103 43.5357 35.0884 43.7758 34.1805C44.0158 33.2726 43.9953 32.3155 43.7166 31.4188C43.4379 30.522 42.9123 29.7218 42.2 29.1099ZM39.2 33.9099L20.5 37.3099L10 28.6099V23.4099H18.2L24.1 29.3099C24.1788 29.3887 24.2413 29.4822 24.2839 29.5852C24.3266 29.6881 24.3485 29.7985 24.3485 29.9099C24.3485 30.0213 24.3266 30.1317 24.2839 30.2346C24.2413 30.3376 24.1788 30.4311 24.1 30.5099C24.0212 30.5887 23.9277 30.6512 23.8247 30.6938C23.7218 30.7365 23.6114 30.7584 23.5 30.7584C23.3886 30.7584 23.2782 30.7365 23.1753 30.6938C23.0723 30.6512 22.9788 30.5887 22.9 30.5099L19.4 27.0099C19.0149 26.7211 18.5384 26.5808 18.0582 26.6149C17.578 26.6491 17.1262 26.8553 16.7858 27.1957C16.4454 27.5361 16.2392 27.9879 16.205 28.4681C16.1709 28.9484 16.3111 29.4248 16.6 29.8099L20.1 33.3099C20.5362 33.7695 21.0646 34.1318 21.6505 34.373C22.2364 34.6143 22.8667 34.7291 23.5 34.7099C24.1122 34.7072 24.72 34.6059 25.3 34.4099L38.9 32.0099C39.1825 31.9703 39.4694 32.042 39.7 32.2099C39.7981 32.2976 39.8759 32.4057 39.9277 32.5266C39.9795 32.6476 40.0042 32.7784 40 32.9099C40.0047 33.1439 39.9272 33.3721 39.7811 33.5548C39.6349 33.7375 39.4293 33.8632 39.2 33.9099Z" fill="#1C86C0"/>
</svg>
