<svg xmlns="http://www.w3.org/2000/svg" width="38" height="37" viewBox="0 0 38 37">
  <g id="linkedin" transform="translate(-272 -7675)">
    <rect id="Rectangle_17737" data-name="Rectangle 17737" width="38" height="37" rx="2" transform="translate(272 7675)" fill="#007ebb"/>
    <path id="LinkedIn-2" data-name="LinkedIn" d="M729.677,290.161H723.56v-8.845c0-2.315-.957-3.9-3.061-3.9a3.087,3.087,0,0,0-2.921,2.095,3.888,3.888,0,0,0-.132,1.4v9.249h-6.06s.078-15.668,0-17.092h6.06v2.683c.358-1.173,2.295-2.847,5.384-2.847,3.834,0,6.846,2.458,6.846,7.753v9.5Zm-24.419-19.23h-.039A2.982,2.982,0,0,1,702,267.968a3.29,3.29,0,1,1,3.258,2.963Zm-2.56,2.138h5.395v17.092H702.7V273.068Z" transform="translate(-423.14 7416.148)" fill="#fff" fill-rule="evenodd"/>
  </g>
</svg>
