<svg xmlns="http://www.w3.org/2000/svg" width="18.004" height="24.009" viewBox="0 0 18.004 24.009">
  <g id="location" transform="translate(-40.603 0.5)">
    <g id="Group_73023" data-name="Group 73023" transform="translate(41.103)">
      <g id="Group_73022" data-name="Group 73022" transform="translate(0)">
        <path id="Path_163413" data-name="Path 163413" d="M49.605,0a8.512,8.512,0,0,0-8.5,8.5c0,4.539,7.751,13.912,8.081,14.309a.548.548,0,0,0,.842,0c.33-.4,8.081-9.77,8.081-14.309A8.512,8.512,0,0,0,49.605,0Zm0,21.592c-.687-.858-2.115-2.687-3.528-4.777C43.54,13.062,42.2,10.187,42.2,8.5a7.406,7.406,0,1,1,14.813,0c0,1.685-1.341,4.56-3.878,8.313C51.72,18.9,50.292,20.733,49.605,21.592Z" transform="translate(-41.103)" fill="#d3edfc" stroke="#d3edfc" stroke-width="1"/>
        <path id="Path_163414" data-name="Path 163414" d="M153.334,212.764a.548.548,0,0,0-.761.147c-.739,1.094-1.567,2.241-2.461,3.409a.548.548,0,1,0,.87.666c.907-1.185,1.748-2.349,2.5-3.462A.548.548,0,0,0,153.334,212.764Z" transform="translate(-142.045 -197.136)" fill="#d3edfc" stroke="#d3edfc" stroke-width="1"/>
        <path id="Path_163415" data-name="Path 163415" d="M100.492,57.5a4.492,4.492,0,1,0,4.492,4.492A4.5,4.5,0,0,0,100.492,57.5Zm0,7.889a3.4,3.4,0,1,1,3.4-3.4A3.4,3.4,0,0,1,100.492,65.389Z" transform="translate(-91.99 -53.3)" fill="#d3edfc" stroke="#d3edfc" stroke-width="1"/>
      </g>
    </g>
  </g>
</svg>
