<svg id="money" xmlns="http://www.w3.org/2000/svg" width="65.552" height="32.709" viewBox="0 0 65.552 32.709">
  <path id="Path_163440" data-name="Path 163440" d="M16.375,138.7A10.026,10.026,0,1,0,26.4,128.672,10.036,10.036,0,0,0,16.375,138.7Zm15.153-2.228-4.483,4.456-1.96,1.946-1.946-1.96-1.879-1.879,1.96-1.946,1.879,1.879,4.483-4.456ZM0,150.469V126.927a4.583,4.583,0,0,1,4.577-4.577H48.225a4.583,4.583,0,0,1,4.577,4.577v1.382H49.768a2.861,2.861,0,0,0-2.859,2.859v.765a4.626,4.626,0,0,1-3.785-4.55,5.183,5.183,0,0,1,.134-1.127H9.274a4.51,4.51,0,0,1,.081.846,4.631,4.631,0,0,1-4.631,4.631,5.463,5.463,0,0,1-.819-.067v14.066a5.461,5.461,0,0,1,.819-.067,4.623,4.623,0,0,1,4.631,4.631,4.3,4.3,0,0,1-.081.846H37.729l-.013,1.664v1.8c0,.148.027.309.04.456H4.577A4.6,4.6,0,0,1,0,150.469Zm56.278,2.322v1.8a.453.453,0,0,1-.456.456H49.755a.453.453,0,0,1-.456-.456v-1.8a.453.453,0,0,1,.456-.456h6.067A.47.47,0,0,1,56.278,152.791Zm0-3.6v1.8a.453.453,0,0,1-.456.456H49.755a.453.453,0,0,1-.456-.456v-1.8a.453.453,0,0,1,.456-.456h6.067A.453.453,0,0,1,56.278,149.194Zm0-3.61v1.8a.453.453,0,0,1-.456.456H49.755a.453.453,0,0,1-.456-.456v-1.8a.453.453,0,0,1,.456-.456h6.067A.47.47,0,0,1,56.278,145.583Zm0-3.6v1.8a.453.453,0,0,1-.456.456H49.755a.453.453,0,0,1-.456-.456v-1.8a.453.453,0,0,1,.456-.456h6.067A.453.453,0,0,1,56.278,141.986Zm0-3.61v1.8a.453.453,0,0,1-.456.456H49.755a.453.453,0,0,1-.456-.456v-1.8a.453.453,0,0,1,.456-.456h6.067A.47.47,0,0,1,56.278,138.376Zm0-3.6v1.8a.453.453,0,0,1-.456.456H49.755a.45.45,0,0,1-.443-.456v-1.8a.453.453,0,0,1,.456-.456h6.067A.45.45,0,0,1,56.278,134.779Zm0-3.61v1.8a.453.453,0,0,1-.456.456H49.755a.453.453,0,0,1-.456-.456v-1.785a.453.453,0,0,1,.456-.456h6.067A.45.45,0,0,1,56.278,131.168Zm9.274,21.623v1.8a.453.453,0,0,1-.456.456H59.029a.453.453,0,0,1-.456-.456v-1.8a.453.453,0,0,1,.456-.456H65.1A.47.47,0,0,1,65.552,152.791Zm0-3.6v1.8a.453.453,0,0,1-.456.456H59.029a.453.453,0,0,1-.456-.456v-1.8a.453.453,0,0,1,.456-.456H65.1A.453.453,0,0,1,65.552,149.194Zm0-3.61v1.8a.453.453,0,0,1-.456.456H59.029a.453.453,0,0,1-.456-.456v-1.8a.453.453,0,0,1,.456-.456H65.1A.47.47,0,0,1,65.552,145.583ZM47,152.8v1.8a.453.453,0,0,1-.456.456H40.48a.453.453,0,0,1-.456-.456v-1.8a.453.453,0,0,1,.456-.456h6.067A.453.453,0,0,1,47,152.8Zm0-1.812a.453.453,0,0,1-.456.456H40.48a.453.453,0,0,1-.456-.456v-1.8a.453.453,0,0,1,.456-.456h6.067a.453.453,0,0,1,.456.456Zm0-3.61a.453.453,0,0,1-.456.456H40.48a.453.453,0,0,1-.456-.456v-1.8a.453.453,0,0,1,.456-.456h6.067a.453.453,0,0,1,.456.456Zm0-3.6a.453.453,0,0,1-.456.456H40.48a.453.453,0,0,1-.456-.456v-1.8a.453.453,0,0,1,.456-.456h6.067a.453.453,0,0,1,.456.456Zm0-3.61a.453.453,0,0,1-.456.456H40.48a.453.453,0,0,1-.456-.456v-1.8a.453.453,0,0,1,.456-.456h6.067a.453.453,0,0,1,.456.456Zm-35.179-4.255A2.778,2.778,0,1,1,9.046,138.7,2.784,2.784,0,0,1,11.825,135.919Z" transform="translate(0 -122.35)" fill="#1c86c0"/>
</svg>
