<svg xmlns="http://www.w3.org/2000/svg" width="21.224" height="21.224" viewBox="0 0 21.224 21.224">
  <path id="send" d="M10.5,13.5,21,3M10.627,13.828l2.628,6.758c.231.6.347.893.514.98a.5.5,0,0,0,.461,0c.167-.087.283-.384.515-.979L21.336,3.7c.21-.537.315-.806.257-.977a.5.5,0,0,0-.316-.316c-.172-.057-.44.047-.977.257L3.413,9.254c-.6.232-.893.348-.979.515a.5.5,0,0,0,0,.462c.087.167.385.283.98.514l6.758,2.628a1.075,1.075,0,0,1,.232.107.5.5,0,0,1,.117.117A1.075,1.075,0,0,1,10.627,13.828Z" transform="translate(-1.366 -1.41)" fill="none" stroke="#fff" stroke-linecap="round" stroke-linejoin="round" stroke-width="2"/>
</svg>
