<svg xmlns="http://www.w3.org/2000/svg" width="18.508" height="17.825" viewBox="0 0 18.508 17.825">
  <g id="star" transform="translate(-33.25 -3.44)">
    <path id="Path_163450" data-name="Path 163450" d="M16.049,11.789a1.382,1.382,0,0,0-.766-2.358l-4-.582a.022.022,0,0,1-.017-.012L9.474,5.211a1.382,1.382,0,0,0-2.479,0L5.2,8.837a.023.023,0,0,1-.017.012l-4,.582a1.382,1.382,0,0,0-.766,2.358l2.9,2.823a.022.022,0,0,1,.006.02l-.684,3.986a1.383,1.383,0,0,0,2.006,1.457l3.58-1.882a.022.022,0,0,1,.021,0l3.58,1.882a1.382,1.382,0,0,0,2.006-1.457l-.684-3.986a.022.022,0,0,1,.006-.02Zm-4.243,3.073.684,3.986c0,.011,0,.014-.009.022s-.014.007-.024,0L8.877,16.99a1.383,1.383,0,0,0-1.287,0l-3.58,1.882c-.009,0-.012.006-.024,0s-.011-.011-.009-.022l.684-3.986a1.382,1.382,0,0,0-.4-1.224l-2.9-2.823c-.008-.007-.01-.01-.006-.023s.007-.014.018-.015l4-.582a1.382,1.382,0,0,0,1.041-.756l1.79-3.627c0-.01.006-.012.02-.012s.015,0,.02.012l1.79,3.627a1.382,1.382,0,0,0,1.041.756l4,.582c.011,0,.014,0,.018.015s0,.015-.006.023l-2.9,2.823A1.383,1.383,0,0,0,11.806,14.862Z" transform="translate(34.27)" fill="#1c86c0" stroke="#1c86c0" stroke-width="2"/>
  </g>
</svg>
