<svg xmlns="http://www.w3.org/2000/svg" width="26.066" height="21.722" viewBox="0 0 26.066 21.722">
  <path id="Twitter" d="M326.066,166.571a10.44,10.44,0,0,1-3.071.863,5.472,5.472,0,0,0,2.352-3.032,10.543,10.543,0,0,1-3.4,1.329,5.273,5.273,0,0,0-3.9-1.731,5.417,5.417,0,0,0-5.346,5.484,5.6,5.6,0,0,0,.138,1.248A15.055,15.055,0,0,1,301.814,165a5.584,5.584,0,0,0-.723,2.76,5.52,5.52,0,0,0,2.379,4.564,5.251,5.251,0,0,1-2.424-.684v.067a5.452,5.452,0,0,0,4.292,5.377,5.1,5.1,0,0,1-1.409.193,5.212,5.212,0,0,1-1.007-.1,5.368,5.368,0,0,0,5,3.806,10.559,10.559,0,0,1-6.641,2.349A10.753,10.753,0,0,1,300,183.26a14.891,14.891,0,0,0,8.2,2.462c9.837,0,15.216-8.355,15.216-15.6,0-.238,0-.477-.014-.71a10.972,10.972,0,0,0,2.667-2.839" transform="translate(-300 -164)" fill="#00aaec" fill-rule="evenodd"/>
</svg>
